<?xml version="1.0" standalone="no"?>
<!DOCTYPE svg PUBLIC "-//W3C//DTD SVG 20010904//EN"
 "http://www.w3.org/TR/2001/REC-SVG-20010904/DTD/svg10.dtd">
<svg version="1.0" xmlns="http://www.w3.org/2000/svg"
 width="400.000000pt" height="400.000000pt" viewBox="0 0 400.000000 400.000000"
 preserveAspectRatio="xMidYMid meet">
<metadata>
Created by potrace 1.11, written by Peter Selinger 2001-2013
</metadata>
<g transform="translate(0.000000,400.000000) scale(0.100000,-0.100000)"
fill="#000000" stroke="none">
<path d="M418 2855 c-17 -10 -31 -29 -37 -53 -15 -51 -15 -1503 0 -1554 17
-65 32 -68 331 -68 145 0 301 5 348 10 335 38 553 192 650 459 49 133 63 240
57 436 -4 147 -8 182 -31 260 -39 130 -89 217 -171 300 -103 103 -213 161
-385 202 -98 23 -723 30 -762 8z m687 -284 c221 -79 329 -283 312 -591 -15
-250 -93 -398 -250 -475 -87 -42 -163 -55 -324 -55 l-123 0 0 576 0 577 163
-5 c132 -4 173 -9 222 -27z"/>
<path d="M2121 2857 c-13 -6 -34 -25 -45 -40 -21 -28 -21 -34 -24 -808 -2
-529 1 -786 8 -799 6 -11 29 -24 53 -31 50 -13 193 -8 225 10 l22 12 -2 639
c-2 351 0 636 3 632 3 -4 16 -32 29 -62 71 -171 581 -1124 626 -1171 47 -48
89 -59 225 -59 97 0 119 3 147 20 64 39 62 11 62 858 l0 769 -21 19 c-18 16
-37 19 -133 19 -72 0 -119 -4 -134 -13 l-22 -13 2 -589 c2 -325 2 -590 1 -590
-1 0 -36 71 -78 158 -148 306 -498 954 -537 993 -20 21 -54 42 -75 48 -54 15
-302 14 -332 -2z"/>
</g>
</svg>
